<?xml version="1.0" encoding="UTF-8" standalone="no"?>
<!-- Created with Inkscape (http://www.inkscape.org/) -->

<svg
   xmlns:dc="http://purl.org/dc/elements/1.1/"
   xmlns:cc="http://creativecommons.org/ns#"
   xmlns:rdf="http://www.w3.org/1999/02/22-rdf-syntax-ns#"
   xmlns:svg="http://www.w3.org/2000/svg"
   xmlns="http://www.w3.org/2000/svg"
   xmlns:xlink="http://www.w3.org/1999/xlink"
   xmlns:sodipodi="http://sodipodi.sourceforge.net/DTD/sodipodi-0.dtd"
   xmlns:inkscape="http://www.inkscape.org/namespaces/inkscape"
   width="210mm"
   height="297mm"
   viewBox="0 0 744.09448819 1052.3622047"
   id="svg2"
   version="1.1"
   inkscape:version="0.91 r13725"
   sodipodi:docname="drawing.svg">
  <defs
     id="defs4">
    <inkscape:perspective
       sodipodi:type="inkscape:persp3d"
       inkscape:vp_x="0 : 526.1811 : 1"
       inkscape:vp_y="0 : 1000 : 0"
       inkscape:vp_z="732.66592 : 154.75252 : 1"
       inkscape:persp3d-origin="372.04724 : 350.7874 : 1"
       id="perspective3355" />
  </defs>
  <sodipodi:namedview
     id="base"
     pagecolor="#ffffff"
     bordercolor="#666666"
     borderopacity="1.0"
     inkscape:pageopacity="0.0"
     inkscape:pageshadow="2"
     inkscape:zoom="0.35"
     inkscape:cx="375"
     inkscape:cy="520"
     inkscape:document-units="px"
     inkscape:current-layer="layer1"
     showgrid="false"
     inkscape:window-width="1242"
     inkscape:window-height="755"
     inkscape:window-x="38"
     inkscape:window-y="0"
     inkscape:window-maximized="1" />
  <metadata
     id="metadata7">
    <rdf:RDF>
      <cc:Work
         rdf:about="">
        <dc:format>image/svg+xml</dc:format>
        <dc:type
           rdf:resource="http://purl.org/dc/dcmitype/StillImage" />
        <dc:title></dc:title>
      </cc:Work>
    </rdf:RDF>
  </metadata>
  <g
     inkscape:label="Layer 1"
     inkscape:groupmode="layer"
     id="layer1">
    <g
       id="g3357"
       style="fill:none;fill-rule:evenodd;stroke:none;stroke-width:1px;stroke-linecap:butt;stroke-linejoin:round;stroke-opacity:1">
      <path
         d="m 672.02565,662.88372 -188.40899,-38.32591 0,-114.54945 188.40899,-6.30064 z"
         style="fill:#e9e9ff;fill-rule:evenodd;stroke:none;stroke-width:1px;stroke-linecap:butt;stroke-linejoin:round;stroke-opacity:1"
         id="path3373" />
      <path
         d="m 414.28571,548.54495 0,-146.43801 69.33095,107.90142 0,114.54945 z"
         style="fill:#d7d7ff;fill-rule:evenodd;stroke:none;stroke-width:1px;stroke-linecap:butt;stroke-linejoin:round;stroke-opacity:1"
         id="path3375" />
      <path
         d="m 645.71429,332.79654 -231.42858,69.3104 69.33095,107.90142 188.40899,-6.30064 z"
         style="fill:#afafde;fill-rule:evenodd;stroke:none;stroke-width:1px;stroke-linecap:butt;stroke-linejoin:round;stroke-opacity:1"
         id="path3377" />
      <path
         d="m 645.71429,561.03785 -231.42858,-12.4929 69.33095,76.01286 188.40899,38.32591 z"
         style="fill:#4d4d9f;fill-rule:evenodd;stroke:none;stroke-width:1px;stroke-linecap:butt;stroke-linejoin:round;stroke-opacity:1"
         id="path3379" />
      <path
         d="m 645.71429,561.03785 0,-228.24131 26.31136,170.91118 0,159.176 z"
         style="fill:#353564;fill-rule:evenodd;stroke:none;stroke-width:1px;stroke-linecap:butt;stroke-linejoin:round;stroke-opacity:1"
         id="path3381" />
      <path
         d="m 645.71429,561.03785 -231.42858,-12.4929 0,-146.43801 231.42858,-69.3104 z"
         style="fill:#8686bf;fill-rule:evenodd;stroke:none;stroke-width:1px;stroke-linecap:butt;stroke-linejoin:round;stroke-opacity:1"
         id="path3383" />
    </g>
    <use
       id="use3385"
       xlink:href="#g3357"
       x="0"
       y="0"
       width="100%"
       height="100%"
       transform="translate(-137.22478,-256.58653)" />
    <use
       id="use3387"
       xlink:href="#g3357"
       x="0"
       y="0"
       width="100%"
       height="100%"
       transform="translate(-148.99786,-239.91328)" />
    <use
       id="use3389"
       xlink:href="#g3357"
       x="0"
       y="0"
       width="100%"
       height="100%"
       transform="translate(-530.08388,-309.20575)" />
    <use
       id="use3391"
       xlink:href="#g3357"
       x="0"
       y="0"
       width="100%"
       height="100%"
       transform="translate(-430.25674,-66.512028)" />
    <use
       id="use3393"
       xlink:href="#g3357"
       x="0"
       y="0"
       width="100%"
       height="100%"
       transform="translate(3.01631,398.27373)"
       style="fill:#aa0000" />
    <use
       id="use3395"
       xlink:href="#g3357"
       x="0"
       y="0"
       width="100%"
       height="100%"
       transform="translate(-616.24318,210.11863)" />
    <use
       id="use3397"
       xlink:href="#g3357"
       x="0"
       y="0"
       width="100%"
       height="100%"
       transform="translate(-512.10467,117.37801)" />
    <path
       sodipodi:type="star"
       style="fill:#008080;fill-rule:evenodd;stroke:#000000;stroke-width:1px;stroke-linecap:butt;stroke-linejoin:miter;stroke-opacity:1"
       id="path3399"
       sodipodi:sides="5"
       sodipodi:cx="317.14285"
       sodipodi:cy="766.64795"
       sodipodi:r1="123.6189"
       sodipodi:r2="61.809448"
       sodipodi:arg1="0.98279372"
       sodipodi:arg2="1.6111123"
       inkscape:flatsided="false"
       inkscape:rounded="0"
       inkscape:randomized="0"
       d="m 385.71428,869.50509 -71.06266,-41.09792 -74.14198,35.24069 17.12687,-80.28456 -56.42702,-59.62325 81.64765,-8.52067 39.26817,-72.08988 33.33415,75.0185 80.69608,15.06925 -61.04601,54.88465 z"
       inkscape:transform-center-x="-1.539665"
       inkscape:transform-center-y="-10.330654" />
    <path
       style="fill:none;fill-rule:evenodd;stroke:#000000;stroke-width:1px;stroke-linecap:butt;stroke-linejoin:miter;stroke-opacity:1"
       d="m 197.14286,143.79078 c 21.33333,0 12.95238,0 34.28571,0 4.76191,0 9.76818,1.50584 14.28572,0 7.28431,-2.42811 13.36761,-7.55968 20,-11.42858 4.79681,-2.79814 16.76922,-3.60441 14.28571,-8.57142 -2.59076,-5.18152 -11.96134,0.26638 -17.14286,2.85714 -6.65304,3.32652 -12.33812,8.60739 -17.14285,14.28571 -5.80363,6.85883 -9.42715,15.29937 -14.28572,22.85715 C 217.88686,184.85567 220,173.64861 220,192.3622 c 0,2.85715 -0.46971,5.75316 0,8.57143 1.94099,11.64595 7.39279,14.747 20,20 2.49862,1.0411 16.76011,-0.7655 20,5.71429 0.42592,0.85183 0.23099,1.9332 0,2.85714 -1.71931,6.87725 -2.50717,10.24287 -8.57143,14.28572 -3.54385,2.36256 -8.10271,3.0536 -11.42857,5.71428 -1.66293,1.33035 -2.34064,3.64828 -2.85714,5.71429 -0.46198,1.84789 0,3.80952 0,5.71428 0,1.90477 -0.97999,4.08097 0,5.71429 8.50672,14.17786 8.92921,2.14668 11.42857,17.14286 0.46971,2.81826 0,5.71428 0,8.57142 0,3.80953 0,7.61905 0,11.42858 0,1.90476 -0.97999,4.08096 0,5.71428 2.07888,3.4648 5.98469,5.46735 8.57143,8.57143 2.1983,2.63796 2.92004,6.57554 5.71428,8.57143 4.17342,2.98101 9.59903,3.63131 14.28572,5.71428 45.08146,20.03621 -16.77092,-6.95688 20,11.42858 0.85183,0.42591 2.1837,-0.67344 2.85714,0 0.67344,0.67343 0,1.90476 0,2.85714 0,0.95238 0,1.90476 0,2.85714"
       id="path3401"
       inkscape:connector-curvature="0" />
    <path
       style="fill:#aa0000"
       id="path3403"
       d="m 628.71771,99.959826 c 15.20751,1.525904 31.24012,4.703424 43.2863,14.864014 3.45219,2.91181 6.2426,6.528 9.3639,9.792 2.74672,4.45263 5.94996,8.65412 8.24016,13.35787 11.2988,23.20616 12.96104,50.56458 2.7925,74.54088 -2.87609,6.78149 -7.20972,12.84764 -10.81458,19.27146 -17.75763,25.00867 -41.34533,44.65019 -64.95741,63.82384 0,0 -35.72184,14.33001 -35.72184,14.33001 l 0,0 c 23.86362,-18.7143 47.59326,-38.01872 65.75974,-62.60302 9.03452,-15.2615 13.41689,-19.52068 16.75318,-36.96929 4.47278,-23.39236 -2.18102,-46.088 -16.20887,-64.83279 -3.05106,-2.94143 -5.79845,-6.23455 -9.15318,-8.82429 -12.23673,-9.44634 -28.48281,-11.90641 -43.48072,-11.94593 0,0 34.14082,-24.804754 34.14082,-24.804754 z"
       inkscape:connector-curvature="0" />
    <path
       style="fill:#aa0000"
       id="path3405"
       d="M 363.95921,71.369174 C 363.6057,69.636053 363.56938,67.806533 362.8987,66.169811 355.8336,48.928248 339.23095,33.1319 325.52595,21.515331 303.89104,3.1772407 291.86004,-3.2876854 267.70767,-18.682687 c -27.77639,-15.871463 -56.54826,-30.262553 -86.64414,-41.2381 -12.69795,-4.630766 -27.74559,-9.448634 -41.45067,-10.556906 -5.92685,-0.479279 -11.88812,0.318703 -17.83218,0.478054 -6.024,2.170038 -11.68227,6.098988 -18.072,6.510114 -5.178503,0.333193 16.06026,-11.12815 14.25167,-6.264308 -3.05968,8.22842 -13.20082,11.68511 -18.785899,18.458247 C 93.007249,-43.816502 87.5521,-35.70153 82.878089,-27.208904 67.345524,1.0135945 69.161326,4.7788574 62.606035,36.725626 c 0.493896,12.971849 -0.431493,26.076055 1.481687,38.915546 9.451567,63.430168 46.498998,119.483648 90.913178,164.137008 10.70534,10.76298 22.72092,20.13811 34.08139,30.20716 33.73403,26.50337 71.36539,47.25252 112.39116,59.90045 14.40856,4.44204 18.76066,4.88021 32.74819,7.4725 3.79117,0.4372 7.58234,0.87439 11.37352,1.31158 0,0 -33.06488,23.30013 -33.06488,23.30013 l 0,0 c -3.64682,-0.64585 -7.29365,-1.29169 -10.94047,-1.93753 -4.67582,-1.13742 -9.40079,-2.08901 -14.02745,-3.41226 C 240.73747,343.228 198.45579,318.13734 160.93376,287.43338 149.72088,277.127 137.9106,267.43496 127.29513,256.51425 83.15642,211.10635 44.66592,154.97938 33.43369,91.462308 31.147891,78.536356 31.696916,65.266812 30.828529,52.169063 32.881801,40.556888 33.747833,28.670862 36.988345,17.332536 43.390772,-5.0691145 62.968444,-41.752566 82.533583,-55.886712 98.87333,-67.690787 116.40225,-77.862536 134.26149,-87.209784 c 5.88687,-3.081095 12.72573,-3.827454 19.08859,-5.741181 6.0031,0.122661 12.05243,-0.385649 18.0093,0.367984 13.35434,1.68952 28.23102,7.157023 40.47049,12.139606 29.49365,12.006621 57.63059,27.151117 85.30002,42.815144 24.04066,14.978104 37.53888,22.488899 59.73039,39.7412293 15.65303,12.1691177 32.5842,26.4639537 42.53767,44.0681917 1.04692,1.851633 1.57142,3.953351 2.35713,5.930026 0,0 -37.79587,19.257958 -37.79587,19.257958 z"
       inkscape:connector-curvature="0" />
    <path
       style="fill:#aa0000"
       id="path3407"
       d="M 279.66235,584.2878 C 261.61609,501.88945 221.84003,429.79539 157.1715,374.36639 139.90406,359.56603 120.27661,347.76513 101.82916,334.4645 57.237906,312.99865 33.574469,296.34277 -16.471642,292.05421 c -5.393741,-0.4622 -54.17965,-4.66371 -65.47634,13.56435 -32.600818,52.60387 -22.063858,49.39039 -19.196608,115.4279 9.890791,27.8905 17.158755,56.85514 29.672381,83.67149 26.568753,56.9361 66.7819277,113.91557 107.445309,161.54756 30.999332,36.31178 73.20777,77.55029 113.12266,105.29343 14.0364,9.75611 29.91791,16.5447 44.87686,24.81705 10.62978,1.34697 22.65076,-1.38637 31.88933,4.04089 5.00933,2.94277 -13.6879,9.80459 -16.73798,4.85988 -4.82946,-7.8294 3.74713,-18.30452 2.80062,-27.45478 -2.76293,-26.7102 -15.74899,-55.50524 -28.50031,-78.4195 -6.98522,-12.55252 -15.69288,-24.06594 -23.53931,-36.09891 -12.47124,-13.48138 -30.48956,-38.36622 -51.35447,-42.84942 -7.3679,-1.58312 -17.575044,-1.28507 -22.10647,4.73642 -3.190115,4.23912 14.38511,-0.95782 15.33491,4.26184 2.53275,13.91889 -4.62689,27.91404 -6.940334,41.87106 3.584169,18.9182 7.168334,37.8364 10.752504,56.7546 9.76709,20.30062 17.33226,41.81642 29.30128,60.90187 46.3107,73.84569 126.50758,137.09452 212.89496,154.94604 16.40713,3.39046 33.42245,2.38672 50.13368,3.58008 12.38365,-3.48045 25.733,-4.51696 37.15096,-10.44136 4.36977,-2.26733 -11.81171,2.77471 -14.72032,-1.19715 -4.27658,-5.83989 0.8389,-14.96143 -1.99135,-21.6235 -7.15794,-16.849 -26.0616,-31.13575 -41.71328,-38.60387 -8.66699,-4.13542 -18.38571,-5.5533 -27.57857,-8.32996 -63.37288,19.52606 -11.90872,-5.17605 -9.63782,-2.7284 4.12626,4.44742 -5.56141,11.84753 -4.09338,17.73399 1.86057,7.46048 7.44152,13.83422 13.22872,18.8967 20.25622,17.71956 34.91357,17.45642 60.60966,23.43387 27.42465,-1.41703 48.28149,1.71022 71.93544,-16.30489 2.83798,-2.16143 -2.87314,-7.15038 -1.79396,-10.55057 4.12595,-12.99965 13.37097,-24.07745 16.96069,-37.23528 8.74817,-32.06582 3.30778,-49.73882 -0.7652,-81.61865 -7.48981,-22.64469 -11.50744,-42.79636 -26.92669,-61.62939 -4.12212,-5.03476 -18.13516,-5.43803 -15.77307,-11.50113 3.2163,-8.25575 16.188,-13.96682 24.37956,-10.59035 6.10933,2.51819 -3.58905,13.20763 -2.30433,19.68951 1.7613,8.88639 7.41454,16.53195 11.12181,24.79792 7.69075,6.21538 14.026,14.65313 23.07223,18.64614 21.69129,9.57455 44.94225,6.18651 65.12324,-5.24083 2.80943,-1.59082 0.28372,-6.6898 1.8655,-9.50432 41.27755,-73.4469 15.11704,-5.07486 41.34096,-88.91066 -0.44339,-16.9196 2.13621,-34.19216 -1.33017,-50.75881 -12.17903,-58.20637 -70.51285,-121.89402 -133.4847,-121.99774 -12.78549,-0.0211 -24.82843,6.11763 -37.24264,9.17644 4.46998,24.82929 -1.09146,-14.74354 -14.46353,42.84321 -2.83613,12.21382 -3.54804,25.34242 -0.93001,37.60483 5.36756,25.14071 23.03819,47.76494 46.77677,58.14604 11.86394,5.18821 25.5552,4.19689 38.3328,6.29534 13.13986,-6.37443 29.04004,-8.84933 39.41957,-19.1233 7.39669,-7.32147 6.07375,-19.92897 9.83691,-29.63225 8.40253,-21.66586 20.65061,-41.97066 26.64019,-64.42365 11.50458,-43.12699 13.36562,-92.46601 -1.41119,-135.32907 -6.98171,-20.25186 -20.92618,-37.38479 -31.38927,-56.07719 -15.87451,-13.72744 -29.70297,-30.26003 -47.62352,-41.18231 -49.92078,-30.4259 -116.13664,-36.29105 -165.17459,-0.078 -8.46427,6.25061 -11.06984,17.92216 -15.88868,27.27592 -9.34494,18.13931 -17.71554,36.76423 -26.57331,55.14634 -0.93622,20.09345 -5.70985,40.37542 -2.80865,60.28035 8.93239,61.28458 53.91729,114.8775 118.58764,120.04733 64.87732,5.18637 91.64213,-21.13619 146.64518,-51.2443 16.76668,-18.574 35.36386,-35.6465 50.30003,-55.72199 19.19382,-25.79814 37.93445,-52.37605 51.73344,-81.41971 23.61013,-49.69384 38.06593,-109.4071 26.88045,-164.7742 C 680.41699,131.40097 654.85693,120.87666 607.38776,74.84314 581.32633,64.070544 556.74304,48.593232 529.20347,42.525352 468.259,29.097263 411.93862,38.375195 355.65117,63.864031 311.52883,83.844093 262.61405,134.90554 237.93901,173.10925 c -15.95968,24.70997 -24.37316,53.54553 -36.55975,80.3183 -1.96345,28.42871 -9.42632,57.00992 -5.89035,85.28612 11.12873,88.99366 76.76252,163.26925 156.49745,199.25316 71.47344,32.25554 96.981,23.13808 172.29806,21.10639 56.86029,-16.84881 95.09907,-21.38485 141.59815,-59.93578 7.77284,-6.44422 10.66071,-17.35438 13.87371,-26.9263 10.76473,-32.06938 16.07602,-48.7597 -8.91877,-75.90903 -9.48719,-10.30499 -23.56224,-15.15321 -35.34336,-22.72981 -39.12398,-1.43428 -57.81462,-8.90416 -91.88853,19.52974 -8.21288,6.85347 -9.65312,19.11829 -13.68434,29.0264 -22.9197,56.33318 -33.49732,73.04154 -26.41508,136.46955 2.86252,25.63655 12.69504,50.00542 19.04257,75.00813 11.45955,22.95734 21.26085,46.82017 34.37866,68.87201 27.91257,46.92273 45.57152,61.55305 78.90109,101.89888 16.15919,19.56088 34.22353,38.66149 40.65521,64.20584 2.34125,9.29859 0.81486,19.1603 1.22229,28.74045 -5.1748,40.86572 -27.53533,80.01016 -19.93323,122.1384 3.74861,20.7734 9.9703,26.2745 21.27046,42.5258 -27.4176,17.7638 28.00793,6.3881 21.15399,10.1576 -11.81655,6.4987 -23.84358,14.2943 -37.2452,15.7979 -5.65154,0.6341 -8.76022,-7.381 -13.76908,-10.0742 -22.70603,-12.2085 -36.34361,-14.5773 -61.68074,-21.981 -34.22699,-6.9166 -33.52681,-7.5218 -66.76935,-11.5185 -7.97136,-0.9584 -35.30532,-1.7327 -44.03358,-7.7419 -11.63113,-8.0078 -19.41782,-31.5602 -24.10634,-42.24226 -6.07096,-11.47513 -10.6919,-23.84379 -18.21289,-34.42538 -10.28027,-14.46374 -21.72669,-28.29916 -34.8549,-40.23792 -53.38155,-48.54505 -121.35622,-80.99973 -190.24167,-100.63912 -19.90509,-5.67499 -40.55468,-8.30609 -60.83201,-12.45913 -16.38872,-0.0368 -32.77744,-0.0735 -49.166161,-0.1103 -10.629078,2.82371 -20.917588,7.68533 -31.887235,8.47113 -6.809247,0.48778 12.246804,-6.84932 19.03738,-7.55063 1.852364,-0.19131 -0.582867,4.81339 1.16181,5.46451 4.843606,1.80764 17.298276,-8.19988 18.839416,-9.22464 -8.856752,3.21683 -17.152325,9.9549 -26.570246,9.65047 -3.509485,-0.11344 1.108962,-7.38087 -0.456169,-10.52407 -1.690159,-3.39429 -4.943598,-6.29677 -8.531077,-7.52472 -4.882243,-1.67112 -29.842403,-0.28132 -29.281516,9.59427 0.306256,5.39229 10.799973,-0.20703 16.199959,-0.31054 -8.538118,19.77109 -17.167767,30.96445 -11.752566,53.82075 4.947274,20.88129 19.497966,35.23534 38.657704,43.65291 24.507481,10.76702 34.661421,5.99728 59.548441,2.65998 7.95111,-3.87695 17.16552,-5.84087 23.85334,-11.63086 4.27126,-3.69785 -11.89799,8.66871 -16.19439,5.00011 -3.64704,-3.11411 5.63038,-7.77061 8.2307,-11.80011 0.90397,-1.4008 0.75766,-3.74304 2.26256,-4.46042 12.13439,-5.78444 24.26308,-12.96657 37.61233,-14.54785 3.41959,-0.40506 -0.87181,6.8316 -1.30771,10.2474 0.71709,4.17471 0.19321,8.76802 2.15127,12.52414 6.25072,11.99063 18.08083,17.08142 30.19039,21.17406 24.28055,8.20606 50.24475,8.94117 75.5386,10.19236 26.87898,0.11194 13.98495,0.26471 38.68311,-0.36206 0,0 -31.62919,23.03516 -31.62919,23.03516 l 0,0 c -24.03171,-0.0708 -11.48007,0.13624 -37.6532,-0.71685 -25.57452,-1.76723 -52.11422,-2.8804 -76.66536,-11.13965 -14.08938,-4.73981 -25.97173,-10.04506 -33.76747,-23.26487 -2.29916,-3.89887 -2.16471,-8.78995 -3.24707,-13.18492 -0.10657,-23.40833 -2.90159,-11.96381 38.18233,-30.70811 2.04205,-0.93167 -2.74827,3.55162 -4.03677,5.3895 -3.06522,4.37214 -4.84419,9.91107 -9.02169,13.23668 -15.23058,12.12469 -31.72921,22.64842 -48.49148,32.54815 -7.48248,4.41912 -15.98085,6.83203 -23.97127,10.24805 -25.695081,2.35239 -35.81683,6.6105 -60.739924,-5.06383 -20.022197,-9.37868 -35.246705,-24.46569 -40.916797,-46.3965 -5.9822244,-23.13807 2.192832,-35.27607 9.960891,-55.80884 16.180716,-12.88854 31.676866,-26.68679 48.542147,-38.66561 5.349074,-3.79926 11.3363,-7.21162 17.781027,-8.44144 5.095778,-0.97241 10.730956,-0.1134 15.420066,2.10578 3.9952,1.89078 18.26105,15.57036 11.54324,23.07945 -11.53153,12.88982 -27.485557,21.00091 -41.228336,31.50137 -4.258481,1.98479 -8.121439,5.3107 -12.775442,5.95437 -3.852947,0.53288 -8.648451,0.16214 -11.372158,-2.61466 -2.37644,-2.42275 -3.681164,-7.89459 -1.118532,-10.11948 13.690555,-11.88621 29.58326,-21.37132 46.07228,-28.90959 21.311158,-9.74281 56.767038,-4.36841 76.746838,-3.42254 19.71424,4.69008 39.78187,8.08645 59.14271,14.07023 45.28006,13.99452 95.67189,35.7161 136.4091,59.70653 39.00137,22.96819 67.85999,44.40743 95.84657,79.27182 8.18055,10.19095 13.61358,22.31094 20.42036,33.4664 4.24319,8.25168 14.15133,31.67892 24.10723,38.52302 8.56851,5.8904 33.55357,7.6492 41.47667,8.8625 33.13256,5.074 31.58523,5.2728 66.0984,12.5158 23.47751,6.341 43.55559,10.5223 65.52579,20.8494 6.18127,2.9054 19.90313,4.5727 17.34654,10.9062 -5.37757,13.3221 -20.73799,20.2192 -32.95916,27.7716 -7.00015,4.3259 -17.21998,-22.7577 -20.04471,-14.4102 -11.11811,-17.308 -17.36496,-23.4778 -20.98889,-45.045 -7.062,-42.02818 13.69425,-81.39941 19.67939,-122.06546 0.0489,-9.31702 1.84807,-18.79056 0.14683,-27.95108 -4.82754,-25.99436 -19.96616,-45.37428 -35.28916,-66.1672 -11.57856,-15.71182 -24.69218,-30.2594 -36.15375,-46.05678 -45.947,-63.32834 -38.14542,-55.41372 -74.20222,-127.78817 -16.58084,-61.69506 -29.98882,-84.27237 -19.1977,-148.60726 10.82313,-64.52565 33.16629,-85.16272 88.27171,-124.15786 14.31546,-10.13028 31.12724,-17.4662 48.3601,-20.71939 15.40714,-2.90853 31.30586,1.81684 46.95879,2.72526 12.24468,8.00014 26.96483,13.11478 36.73404,24.00041 19.93582,22.21409 27.10046,54.77367 7.52865,80.98332 -16.92818,22.66942 -40.77227,39.50768 -63.66174,56.13711 -19.00618,13.80816 -39.59255,25.82839 -61.35128,34.68604 -25.16309,10.2435 -52.27959,14.8083 -78.41939,22.21245 -29.00468,0.51604 -58.25088,5.31876 -87.01405,1.54811 -29.40237,-3.85444 -58.64346,-11.84983 -85.61316,-24.1783 -80.22298,-36.67177 -147.19611,-111.10748 -158.45359,-201.07954 -3.58102,-28.62022 4.02882,-57.54591 6.04323,-86.31886 12.32092,-27.07528 20.90625,-56.18458 36.96276,-81.22582 39.34982,-61.3688 91.71736,-101.376177 157.6927,-132.637155 27.39212,-12.979159 57.27831,-21.622964 87.3815,-25.170528 29.17621,-3.438324 59.3325,-1.835238 88.01938,4.500094 27.99508,6.182552 53.08194,21.681825 79.62291,32.522738 19.45195,18.617136 43.02857,33.714324 58.35586,55.851411 50.30362,72.65315 35.60234,163.6183 0.01,238.3637 -13.87989,29.1483 -30.35859,57.65648 -51.62328,81.94821 -26.2436,29.9794 -59.65626,52.83082 -89.48439,79.24622 -56.83857,30.77797 -85.49519,58.29464 -152.43467,52.73134 C 328.38346,564.02779 282.75432,508.24294 273.41936,446.3 c -3.05214,-20.25272 1.5963,-40.9317 2.39445,-61.39755 8.61298,-18.64107 12.78969,-40.06793 25.83895,-55.92321 25.3386,-30.78723 76.62897,-71.68034 120.39597,-79.53582 38.39179,-6.89071 81.06252,5.00822 113.37016,25.30295 18.0171,11.31783 31.9272,28.13344 47.89079,42.20015 10.49048,19.0618 24.52732,36.56547 31.47144,57.1854 14.51125,43.08983 12.23223,93.53664 1.64428,136.89644 -5.43614,22.26211 -11.1821,45.51048 -24.26824,64.32288 -40.22186,57.8222 -54.03196,58.0132 -105.32541,80.39427 -13.08807,-2.56746 -27.16532,-2.08935 -39.26422,-7.70238 -24.35824,-11.30048 -42.71856,-34.71187 -48.56391,-60.78762 -2.83514,-12.64736 -2.19416,-26.18989 0.43701,-38.88125 2.65425,-12.80266 6.17528,-26.66049 15.12689,-36.19053 16.42242,-17.4836 38.92181,-28.04606 58.38272,-42.06909 12.47254,-2.45541 24.71876,-7.94275 37.41761,-7.36624 62.54039,2.83924 121.53667,68.54993 134.08746,126.6087 3.64089,16.84242 1.22359,34.44118 1.83538,51.66177 -8.77305,30.27554 -14.62645,66.11601 -38.68294,89.82669 -20.69166,20.39421 -61.62664,51.88179 -96.55461,53.45656 -11.13647,0.5021 -22.65796,-1.96398 -32.77751,-6.64029 -9.48821,-4.38456 -16.2326,-13.17213 -24.3489,-19.7582 -4.4324,-8.56703 -10.57593,-16.44719 -13.29721,-25.7011 -8.90468,-30.28097 9.67371,-40.69597 44.93549,-46.86949 6.58535,-1.15295 10.63966,8.41663 14.44725,13.91194 14.71937,21.24377 17.95378,39.16849 25.62046,63.842 4.26937,32.45096 9.72624,50.50915 1.58468,83.27164 -11.3605,45.71583 -30.25855,56.10486 -73.52301,83.52077 -10.59468,6.71366 -22.86637,10.92433 -35.16344,13.39464 -12.50087,2.51125 -25.48536,0.89914 -38.22805,1.3487 -26.54357,-6.1121 -42.83895,-6.2006 -64.11457,-24.28562 -6.68038,-5.67856 -13.18896,-12.71192 -15.68072,-21.11814 -1.96955,-6.64448 -1.6546,-15.71462 3.3381,-20.52098 35.87247,-34.53357 39.76392,-30.5407 75.50793,-32.00085 9.25921,3.13739 19.02718,5.05262 27.77764,9.41217 15.99348,7.96808 37.04569,23.28536 44.79079,40.57229 3.37323,7.529 7.76984,17.89184 2.9337,24.57588 -27.36668,37.82356 -46.00232,36.64326 -83.22203,44.97025 -16.25004,-1.81288 -32.85651,-1.59897 -48.75014,-5.43864 C 236.6235,939.94993 158.32368,876.26265 110.22857,803.01456 97.746769,784.00498 89.207891,762.68134 78.697552,742.51473 74.170258,724.5779 53.325915,667.55517 67.996746,644.05197 c 7.447902,-11.93181 43.984264,-52.12455 71.244024,-43.36325 19.81948,6.36999 37.73098,31.92111 49.66873,45.66108 18.94964,29.52357 30.04964,43.96249 43.59759,76.77255 5.09951,12.34985 9.84823,25.02351 12.24242,38.16853 1.77167,9.72713 6.34198,21.98391 0.11187,29.66126 -12.03802,14.83442 -30.36999,24.8355 -48.70118,30.21526 -9.60323,2.81831 -19.40213,-4.92107 -29.1032,-7.3816 -13.93704,-9.11778 -28.73093,-17.04393 -41.81111,-27.35333 C 87.886339,756.98682 46.367967,713.59757 16.726331,677.70308 -21.853926,630.98438 -64.810585,570.34927 -92.343018,516.33167 -105.81304,489.904 -114.90417,461.46413 -126.18474,434.03036 c -3.74744,-37.75615 -19.36416,-83.91823 13.71507,-116.62516 53.205045,-52.60622 114.6969591,-51.59187 179.023072,-27.33939 20.568794,7.75492 39.399038,19.50827 59.098548,29.26241 18.65622,13.35476 38.41741,25.28736 55.96866,40.0643 35.15864,29.60113 59.1527,58.27616 83.48459,96.85789 21.40085,33.93414 36.0397,71.37659 50.44776,108.58812 0,0 -35.89061,19.44927 -35.89061,19.44927 z"
       inkscape:connector-curvature="0" />
  </g>
</svg>
